<mxfile host="app.diagrams.net" agent="Mozilla/5.0 (Macintosh; Intel Mac OS X 10_15_7) AppleWebKit/537.36 (KHTML, like Gecko) Chrome/130.0.0.0 Safari/537.36" version="24.8.4">
  <diagram name="Page-1" id="qpN-eynC5HgS-LT85f7W">
    <mxGraphModel dx="2850" dy="1213" grid="1" gridSize="10" guides="1" tooltips="1" connect="1" arrows="1" fold="1" page="1" pageScale="1" pageWidth="850" pageHeight="1100" math="0" shadow="0">
      <root>
        <mxCell id="0" />
        <mxCell id="1" parent="0" />
        <object placeholders="1" c4Name="Web Browser" c4Type="Container" c4Technology="Chrome, Firefox, Safari, or Edge " c4Description="End users can browse and shop for products." label="&lt;font style=&quot;font-size: 16px&quot;&gt;&lt;b&gt;%c4Name%&lt;/b&gt;&lt;/font&gt;&lt;div&gt;[%c4Type%:&amp;nbsp;%c4Technology%]&lt;/div&gt;&lt;br&gt;&lt;div&gt;&lt;font style=&quot;font-size: 11px&quot;&gt;&lt;font color=&quot;#E6E6E6&quot;&gt;%c4Description%&lt;/font&gt;&lt;/div&gt;" id="qyXOkJkv9zLX4c14Vueq-10">
          <mxCell style="shape=mxgraph.c4.webBrowserContainer2;whiteSpace=wrap;html=1;boundedLbl=1;rounded=0;labelBackgroundColor=none;strokeColor=#118ACD;fillColor=#23A2D9;strokeColor=#118ACD;strokeColor2=#0E7DAD;fontSize=12;fontColor=#ffffff;align=center;metaEdit=1;points=[[0.5,0,0],[1,0.25,0],[1,0.5,0],[1,0.75,0],[0.5,1,0],[0,0.75,0],[0,0.5,0],[0,0.25,0]];resizable=0;" vertex="1" parent="1">
            <mxGeometry x="10" y="60" width="240" height="160" as="geometry" />
          </mxCell>
        </object>
        <object placeholders="1" c4Name="Mobile App" c4Type="Container" c4Technology=" iOS (Swift) and Android (Kotlin)" c4Description="Front-end that allows users to access the shopping store via mobile devices." label="&lt;font style=&quot;font-size: 14px;&quot;&gt;&lt;b style=&quot;font-size: 14px;&quot;&gt;%c4Name%&lt;/b&gt;&lt;/font&gt;&lt;div style=&quot;font-size: 14px;&quot;&gt;[%c4Type%: %c4Technology%]&lt;/div&gt;&lt;br style=&quot;font-size: 14px;&quot;&gt;&lt;div style=&quot;font-size: 14px;&quot;&gt;&lt;font style=&quot;font-size: 14px;&quot;&gt;&lt;font color=&quot;#E6E6E6&quot; style=&quot;font-size: 14px;&quot;&gt;%c4Description%&lt;/font&gt;&lt;/font&gt;&lt;/div&gt;" id="qyXOkJkv9zLX4c14Vueq-11">
          <mxCell style="rounded=1;whiteSpace=wrap;html=1;fontSize=14;labelBackgroundColor=none;fillColor=#23A2D9;fontColor=#ffffff;align=center;arcSize=10;strokeColor=#0E7DAD;metaEdit=1;resizable=0;points=[[0.25,0,0],[0.5,0,0],[0.75,0,0],[1,0.25,0],[1,0.5,0],[1,0.75,0],[0.75,1,0],[0.5,1,0],[0.25,1,0],[0,0.75,0],[0,0.5,0],[0,0.25,0]];" vertex="1" parent="1">
            <mxGeometry x="-10" y="440" width="240" height="120" as="geometry" />
          </mxCell>
        </object>
        <object placeholders="1" c4Name="Application Server" c4Type="Container" c4Technology="Java with Spring Boot, Node.js with Express, or Python with Django" c4Description="Handles business logic, processes user requests, and communicates with other containers like the Database, Payment Gateway, and Email Service." label="&lt;font style=&quot;font-size: 12px;&quot;&gt;&lt;b style=&quot;font-size: 12px;&quot;&gt;%c4Name%&lt;/b&gt;&lt;/font&gt;&lt;div style=&quot;font-size: 12px;&quot;&gt;[%c4Type%: %c4Technology%]&lt;/div&gt;&lt;br style=&quot;font-size: 12px;&quot;&gt;&lt;div style=&quot;font-size: 12px;&quot;&gt;&lt;font style=&quot;font-size: 12px;&quot;&gt;&lt;font color=&quot;#E6E6E6&quot; style=&quot;font-size: 12px;&quot;&gt;%c4Description%&lt;/font&gt;&lt;/font&gt;&lt;/div&gt;" id="qyXOkJkv9zLX4c14Vueq-12">
          <mxCell style="rounded=1;whiteSpace=wrap;html=1;fontSize=12;labelBackgroundColor=none;fillColor=#23A2D9;fontColor=#ffffff;align=center;arcSize=10;strokeColor=#0E7DAD;metaEdit=1;resizable=0;points=[[0.25,0,0],[0.5,0,0],[0.75,0,0],[1,0.25,0],[1,0.5,0],[1,0.75,0],[0.75,1,0],[0.5,1,0],[0.25,1,0],[0,0.75,0],[0,0.5,0],[0,0.25,0]];" vertex="1" parent="1">
            <mxGeometry x="610" y="510" width="240" height="120" as="geometry" />
          </mxCell>
        </object>
        <object placeholders="1" c4Name="MySQL, PostgreSQL" c4Type="Container" c4Technology="Database Tech" c4Description="Central storage for all system data, product information, customer data, orders, and shopping history." label="&lt;font style=&quot;font-size: 13px;&quot;&gt;&lt;b style=&quot;font-size: 13px;&quot;&gt;%c4Name%&lt;/b&gt;&lt;/font&gt;&lt;div style=&quot;font-size: 13px;&quot;&gt;[%c4Type%:&amp;nbsp;%c4Technology%]&lt;/div&gt;&lt;br style=&quot;font-size: 13px;&quot;&gt;&lt;div style=&quot;font-size: 13px;&quot;&gt;&lt;font style=&quot;font-size: 13px;&quot;&gt;&lt;font color=&quot;#E6E6E6&quot; style=&quot;font-size: 13px;&quot;&gt;%c4Description%&lt;/font&gt;&lt;/font&gt;&lt;/div&gt;" id="qyXOkJkv9zLX4c14Vueq-13">
          <mxCell style="shape=cylinder3;size=15;whiteSpace=wrap;html=1;boundedLbl=1;rounded=0;labelBackgroundColor=none;fillColor=#23A2D9;fontSize=13;fontColor=#ffffff;align=center;strokeColor=#0E7DAD;metaEdit=1;points=[[0.5,0,0],[1,0.25,0],[1,0.5,0],[1,0.75,0],[0.5,1,0],[0,0.75,0],[0,0.5,0],[0,0.25,0]];resizable=0;" vertex="1" parent="1">
            <mxGeometry x="1260" y="100" width="240" height="120" as="geometry" />
          </mxCell>
        </object>
        <mxCell id="qyXOkJkv9zLX4c14Vueq-24" value="&lt;b style=&quot;font-size: 14px;&quot;&gt;&lt;font style=&quot;font-size: 14px;&quot;&gt;Online Shopping System&lt;/font&gt;&lt;/b&gt;" style="text;html=1;align=center;verticalAlign=middle;whiteSpace=wrap;rounded=0;fontSize=14;" vertex="1" parent="1">
          <mxGeometry x="580" y="780" width="270" height="60" as="geometry" />
        </mxCell>
        <object placeholders="1" c4Type="Relationship" c4Technology="JSON/HTTP" c4Description="Uses" label="&lt;div style=&quot;text-align: left; font-size: 14px;&quot;&gt;&lt;div style=&quot;text-align: center; font-size: 14px;&quot;&gt;&lt;b style=&quot;font-size: 14px;&quot;&gt;%c4Description%&lt;/b&gt;&lt;/div&gt;&lt;div style=&quot;text-align: center; font-size: 14px;&quot;&gt;[%c4Technology%]&lt;/div&gt;&lt;/div&gt;" id="qyXOkJkv9zLX4c14Vueq-32">
          <mxCell style="endArrow=blockThin;html=1;fontSize=14;fontColor=#404040;strokeWidth=3;endFill=1;strokeColor=#828282;elbow=vertical;metaEdit=1;endSize=14;startSize=14;jumpStyle=arc;jumpSize=16;rounded=0;edgeStyle=orthogonalEdgeStyle;dashed=1;entryX=-0.022;entryY=0.667;entryDx=0;entryDy=0;entryPerimeter=0;" edge="1" parent="1" target="qyXOkJkv9zLX4c14Vueq-12">
            <mxGeometry x="0.25" width="240" relative="1" as="geometry">
              <mxPoint x="210" y="560" as="sourcePoint" />
              <mxPoint x="470" y="499.28999999999996" as="targetPoint" />
              <Array as="points">
                <mxPoint x="210" y="590" />
              </Array>
              <mxPoint as="offset" />
            </mxGeometry>
          </mxCell>
        </object>
        <object placeholders="1" c4Type="Relationship" c4Technology="HTTPS" c4Description="Serves" label="&lt;div style=&quot;text-align: left; font-size: 14px;&quot;&gt;&lt;div style=&quot;text-align: center; font-size: 14px;&quot;&gt;&lt;b style=&quot;font-size: 14px;&quot;&gt;%c4Description%&lt;/b&gt;&lt;/div&gt;&lt;div style=&quot;text-align: center; font-size: 14px;&quot;&gt;[%c4Technology%]&lt;/div&gt;&lt;/div&gt;" id="qyXOkJkv9zLX4c14Vueq-33">
          <mxCell style="endArrow=blockThin;html=1;fontSize=14;fontColor=#404040;strokeWidth=3;endFill=1;strokeColor=#828282;elbow=vertical;metaEdit=1;endSize=14;startSize=14;jumpStyle=arc;jumpSize=16;rounded=0;edgeStyle=orthogonalEdgeStyle;dashed=1;entryX=0;entryY=0.5;entryDx=0;entryDy=0;entryPerimeter=0;" edge="1" parent="1">
            <mxGeometry x="0.2378" y="-1" width="240" relative="1" as="geometry">
              <mxPoint x="600" y="160" as="sourcePoint" />
              <mxPoint x="250" y="140" as="targetPoint" />
              <mxPoint x="-1" as="offset" />
              <Array as="points">
                <mxPoint x="426" y="160" />
                <mxPoint x="426" y="141" />
              </Array>
            </mxGeometry>
          </mxCell>
        </object>
        <object placeholders="1" c4Name="Web Server Node" c4Type="Container" c4Technology="Apache or Nginx" c4Description="Hosts the Web Application and serves the static content to users accessing the shopping site via a web browser." label="&lt;font style=&quot;font-size: 13px;&quot;&gt;&lt;b style=&quot;font-size: 13px;&quot;&gt;%c4Name%&lt;/b&gt;&lt;/font&gt;&lt;div style=&quot;font-size: 13px;&quot;&gt;[%c4Type%: %c4Technology%]&lt;/div&gt;&lt;br style=&quot;font-size: 13px;&quot;&gt;&lt;div style=&quot;font-size: 13px;&quot;&gt;&lt;font style=&quot;font-size: 13px;&quot;&gt;&lt;font style=&quot;font-size: 13px;&quot; color=&quot;#E6E6E6&quot;&gt;%c4Description%&lt;/font&gt;&lt;/font&gt;&lt;/div&gt;" id="qyXOkJkv9zLX4c14Vueq-34">
          <mxCell style="rounded=1;whiteSpace=wrap;html=1;fontSize=13;labelBackgroundColor=none;fillColor=#23A2D9;fontColor=#ffffff;align=center;arcSize=10;strokeColor=#0E7DAD;metaEdit=1;resizable=0;points=[[0.25,0,0],[0.5,0,0],[0.75,0,0],[1,0.25,0],[1,0.5,0],[1,0.75,0],[0.75,1,0],[0.5,1,0],[0.25,1,0],[0,0.75,0],[0,0.5,0],[0,0.25,0]];" vertex="1" parent="1">
            <mxGeometry x="600" y="90" width="240" height="120" as="geometry" />
          </mxCell>
        </object>
        <mxCell id="qyXOkJkv9zLX4c14Vueq-35" value="" style="rounded=0;whiteSpace=wrap;html=1;strokeWidth=3;gradientColor=none;fillColor=none;" vertex="1" parent="1">
          <mxGeometry x="-40" y="395" width="320" height="235" as="geometry" />
        </mxCell>
        <mxCell id="qyXOkJkv9zLX4c14Vueq-36" value="&lt;span style=&quot;font-size: 14px;&quot;&gt;Customer&#39;s Mobile Device&lt;br style=&quot;font-size: 14px;&quot;&gt;(Apple iOS or Android)&lt;/span&gt;" style="text;html=1;align=center;verticalAlign=middle;whiteSpace=wrap;rounded=0;fontSize=14;" vertex="1" parent="1">
          <mxGeometry x="-80" y="590" width="260" height="30" as="geometry" />
        </mxCell>
        <mxCell id="qyXOkJkv9zLX4c14Vueq-38" value="" style="rounded=0;whiteSpace=wrap;html=1;strokeWidth=3;gradientColor=none;fillColor=none;" vertex="1" parent="1">
          <mxGeometry x="-20" y="35" width="320" height="242.5" as="geometry" />
        </mxCell>
        <mxCell id="qyXOkJkv9zLX4c14Vueq-40" value="Web Browser&lt;br&gt;(Chrome, Firefox, Safari or Edge)" style="text;html=1;align=center;verticalAlign=middle;whiteSpace=wrap;rounded=0;" vertex="1" parent="1">
          <mxGeometry x="-30" y="240" width="220" height="30" as="geometry" />
        </mxCell>
        <mxCell id="qyXOkJkv9zLX4c14Vueq-43" value="" style="rounded=0;whiteSpace=wrap;html=1;strokeWidth=3;gradientColor=none;fillColor=none;fontSize=13;" vertex="1" parent="1">
          <mxGeometry x="-60" y="12.5" width="380" height="287.5" as="geometry" />
        </mxCell>
        <mxCell id="qyXOkJkv9zLX4c14Vueq-45" value="Customer&#39;s Computer" style="text;html=1;align=center;verticalAlign=middle;whiteSpace=wrap;rounded=0;" vertex="1" parent="1">
          <mxGeometry x="-60" y="277.5" width="140" height="30" as="geometry" />
        </mxCell>
        <object placeholders="1" c4Type="Relationship" c4Technology="JSON/HTTP" c4Description="Forwards Request" label="&lt;div style=&quot;text-align: left; font-size: 14px;&quot;&gt;&lt;div style=&quot;text-align: center; font-size: 14px;&quot;&gt;&lt;b style=&quot;font-size: 14px;&quot;&gt;%c4Description%&lt;/b&gt;&lt;/div&gt;&lt;div style=&quot;text-align: center; font-size: 14px;&quot;&gt;[%c4Technology%]&lt;/div&gt;&lt;/div&gt;" id="qyXOkJkv9zLX4c14Vueq-48">
          <mxCell style="endArrow=blockThin;html=1;fontSize=14;fontColor=#404040;strokeWidth=3;endFill=1;strokeColor=#828282;elbow=vertical;metaEdit=1;endSize=14;startSize=14;jumpStyle=arc;jumpSize=16;rounded=0;edgeStyle=orthogonalEdgeStyle;entryX=0.466;entryY=-0.036;entryDx=0;entryDy=0;entryPerimeter=0;exitX=0.5;exitY=1;exitDx=0;exitDy=0;exitPerimeter=0;dashed=1;" edge="1" parent="1" source="qyXOkJkv9zLX4c14Vueq-34" target="qyXOkJkv9zLX4c14Vueq-12">
            <mxGeometry x="-0.1262" y="-20" width="240" relative="1" as="geometry">
              <mxPoint x="580" y="270" as="sourcePoint" />
              <mxPoint x="820" y="270" as="targetPoint" />
              <mxPoint as="offset" />
            </mxGeometry>
          </mxCell>
        </object>
        <mxCell id="qyXOkJkv9zLX4c14Vueq-49" value="" style="rounded=0;whiteSpace=wrap;html=1;strokeWidth=3;gradientColor=none;fillColor=none;fontSize=14;" vertex="1" parent="1">
          <mxGeometry x="555" y="50" width="350" height="200" as="geometry" />
        </mxCell>
        <mxCell id="qyXOkJkv9zLX4c14Vueq-50" value="&lt;font style=&quot;font-size: 14px;&quot;&gt;Apache or NGINX&lt;/font&gt;" style="text;html=1;align=center;verticalAlign=middle;whiteSpace=wrap;rounded=0;" vertex="1" parent="1">
          <mxGeometry x="560" y="220" width="140" height="30" as="geometry" />
        </mxCell>
        <mxCell id="qyXOkJkv9zLX4c14Vueq-51" value="" style="rounded=0;whiteSpace=wrap;html=1;strokeWidth=3;gradientColor=none;fillColor=none;" vertex="1" parent="1">
          <mxGeometry x="520" y="12.5" width="420" height="287.5" as="geometry" />
        </mxCell>
        <mxCell id="qyXOkJkv9zLX4c14Vueq-52" value="&lt;span style=&quot;font-size: 14px;&quot;&gt;Online Shopping-web&lt;/span&gt;" style="text;html=1;align=center;verticalAlign=middle;whiteSpace=wrap;rounded=0;fontStyle=0;fontSize=14;" vertex="1" parent="1">
          <mxGeometry x="520" y="270" width="160" height="30" as="geometry" />
        </mxCell>
        <object placeholders="1" c4Type="Relationship" c4Technology="JSON/HTTP" c4Description="Uses" label="&lt;div style=&quot;text-align: left; font-size: 14px;&quot;&gt;&lt;div style=&quot;text-align: center; font-size: 14px;&quot;&gt;&lt;b style=&quot;font-size: 14px;&quot;&gt;%c4Description%&lt;/b&gt;&lt;/div&gt;&lt;div style=&quot;text-align: center; font-size: 14px;&quot;&gt;[%c4Technology%]&lt;/div&gt;&lt;/div&gt;" id="qyXOkJkv9zLX4c14Vueq-53">
          <mxCell style="endArrow=blockThin;html=1;fontSize=14;fontColor=#404040;strokeWidth=3;endFill=1;strokeColor=#828282;elbow=vertical;metaEdit=1;endSize=14;startSize=14;jumpStyle=arc;jumpSize=16;rounded=0;edgeStyle=orthogonalEdgeStyle;exitX=0.083;exitY=0.083;exitDx=0;exitDy=0;exitPerimeter=0;dashed=1;entryX=1.008;entryY=0.938;entryDx=0;entryDy=0;entryPerimeter=0;" edge="1" parent="1" source="qyXOkJkv9zLX4c14Vueq-12" target="qyXOkJkv9zLX4c14Vueq-10">
            <mxGeometry x="0.0293" y="10" width="240" relative="1" as="geometry">
              <mxPoint x="340" y="380" as="sourcePoint" />
              <mxPoint x="260" y="210" as="targetPoint" />
              <Array as="points">
                <mxPoint x="380" y="520" />
                <mxPoint x="380" y="210" />
              </Array>
              <mxPoint as="offset" />
            </mxGeometry>
          </mxCell>
        </object>
        <mxCell id="qyXOkJkv9zLX4c14Vueq-54" value="" style="rounded=0;whiteSpace=wrap;html=1;strokeWidth=3;gradientColor=none;fillColor=none;" vertex="1" parent="1">
          <mxGeometry x="565" y="440" width="340" height="233.75" as="geometry" />
        </mxCell>
        <mxCell id="qyXOkJkv9zLX4c14Vueq-55" value="" style="rounded=0;whiteSpace=wrap;html=1;strokeWidth=3;gradientColor=none;fillColor=none;" vertex="1" parent="1">
          <mxGeometry x="525" y="426.25" width="420" height="287.5" as="geometry" />
        </mxCell>
        <mxCell id="qyXOkJkv9zLX4c14Vueq-56" value="&lt;span style=&quot;font-size: 14px;&quot;&gt;Online Shopping-api&lt;/span&gt;" style="text;html=1;align=center;verticalAlign=middle;whiteSpace=wrap;rounded=0;fontSize=14;fontStyle=0" vertex="1" parent="1">
          <mxGeometry x="530" y="686.88" width="130" height="30" as="geometry" />
        </mxCell>
        <mxCell id="qyXOkJkv9zLX4c14Vueq-58" value="&lt;span style=&quot;font-size: 14px;&quot;&gt;Apache or NGINX&lt;/span&gt;" style="text;html=1;align=center;verticalAlign=middle;whiteSpace=wrap;rounded=0;fontSize=14;fontStyle=0" vertex="1" parent="1">
          <mxGeometry x="575" y="650" width="125" height="30" as="geometry" />
        </mxCell>
        <object placeholders="1" c4Type="Relationship" c4Technology="JDBC or ORM" c4Description="Reads From and Writes To" label="&lt;div style=&quot;text-align: left; font-size: 14px;&quot;&gt;&lt;div style=&quot;text-align: center; font-size: 14px;&quot;&gt;&lt;b style=&quot;font-size: 14px;&quot;&gt;%c4Description%&lt;/b&gt;&lt;/div&gt;&lt;div style=&quot;text-align: center; font-size: 14px;&quot;&gt;[%c4Technology%]&lt;/div&gt;&lt;/div&gt;" id="qyXOkJkv9zLX4c14Vueq-59">
          <mxCell style="endArrow=blockThin;html=1;fontSize=14;fontColor=#404040;strokeWidth=3;endFill=1;strokeColor=#828282;elbow=vertical;metaEdit=1;endSize=14;startSize=14;jumpStyle=arc;jumpSize=16;rounded=0;edgeStyle=orthogonalEdgeStyle;entryX=-0.01;entryY=0.429;entryDx=0;entryDy=0;entryPerimeter=0;dashed=1;" edge="1" parent="1" target="qyXOkJkv9zLX4c14Vueq-13">
            <mxGeometry x="0.1992" y="1" width="240" relative="1" as="geometry">
              <mxPoint x="840" y="150" as="sourcePoint" />
              <mxPoint x="1080" y="150" as="targetPoint" />
              <mxPoint x="1" as="offset" />
            </mxGeometry>
          </mxCell>
        </object>
        <mxCell id="qyXOkJkv9zLX4c14Vueq-60" value="" style="rounded=0;whiteSpace=wrap;html=1;strokeWidth=3;gradientColor=none;fillColor=none;fontSize=11;" vertex="1" parent="1">
          <mxGeometry x="1200" y="45" width="360" height="230" as="geometry" />
        </mxCell>
        <mxCell id="qyXOkJkv9zLX4c14Vueq-61" value="Oracle" style="text;html=1;align=center;verticalAlign=middle;whiteSpace=wrap;rounded=0;fontSize=14;" vertex="1" parent="1">
          <mxGeometry x="1210" y="240" width="65" height="30" as="geometry" />
        </mxCell>
        <mxCell id="qyXOkJkv9zLX4c14Vueq-62" value="" style="rounded=0;whiteSpace=wrap;html=1;strokeWidth=3;gradientColor=none;fillColor=none;fontSize=14;" vertex="1" parent="1">
          <mxGeometry x="1180" y="25" width="420" height="280" as="geometry" />
        </mxCell>
        <mxCell id="qyXOkJkv9zLX4c14Vueq-63" value="&lt;span style=&quot;font-size: 14px;&quot;&gt;Online Shopping Store-db&lt;/span&gt;" style="text;html=1;align=center;verticalAlign=middle;whiteSpace=wrap;rounded=0;fontSize=14;fontStyle=0" vertex="1" parent="1">
          <mxGeometry x="1180" y="275" width="180" height="30" as="geometry" />
        </mxCell>
        <mxCell id="qyXOkJkv9zLX4c14Vueq-65" value="&lt;b&gt;&lt;font style=&quot;font-size: 23px;&quot;&gt;x1&lt;/font&gt;&lt;/b&gt;" style="text;html=1;align=center;verticalAlign=middle;resizable=0;points=[];autosize=1;strokeColor=none;fillColor=none;" vertex="1" parent="1">
          <mxGeometry x="890" y="680" width="50" height="40" as="geometry" />
        </mxCell>
        <mxCell id="qyXOkJkv9zLX4c14Vueq-66" value="&lt;b&gt;&lt;font style=&quot;font-size: 23px;&quot;&gt;x1&lt;/font&gt;&lt;/b&gt;" style="text;html=1;align=center;verticalAlign=middle;resizable=0;points=[];autosize=1;strokeColor=none;fillColor=none;" vertex="1" parent="1">
          <mxGeometry x="890" y="260" width="50" height="40" as="geometry" />
        </mxCell>
      </root>
    </mxGraphModel>
  </diagram>
</mxfile>
